<svg width="652" height="421" viewBox="0 0 652 421" fill="none" xmlns="http://www.w3.org/2000/svg">
<g clip-path="url(#clip0_17_3625)">
<path d="M42.94 108.59V124.69H58.54V140.12H75.15V156.22H81.36V108.58H122.12V240.1H81.36V224H64.75V208.57H48.14V192.47H41.93V240.11H0V108.59H42.94Z" fill="url(#paint0_linear_17_3625)"/>
<path d="M362.84 108.59V183.74H351.43V189.95H362.84V240.11H319.9V192.47H305.31V240.11H262.37V108.59H362.85H362.84ZM305.8 156.23H319.39V143.82H305.8V156.23Z" fill="url(#paint1_linear_17_3625)"/>
<path d="M476.23 108.59V120.5H488.14V228.2H476.23V240.11H383.63V108.59H476.23ZM427.08 204.88H444.69V143.82H427.08V204.88Z" fill="url(#paint2_linear_17_3625)"/>
<path d="M513 134.31C518.03 131.79 519.71 128.1 519.37 121.9H515.68V111H523.73V120.56C523.73 130.46 521.05 134.65 514.51 137.33L513 134.31Z" fill="url(#paint3_linear_17_3625)" stroke="url(#paint4_linear_17_3625)" stroke-width="3" stroke-miterlimit="10"/>
<path d="M609.42 205.38V191.96H548.36V108.59H651.86V143.32H590.8V156.74H651.86V240.11H548.36V205.39H609.42V205.38Z" fill="url(#paint5_linear_17_3625)"/>
<path d="M43.45 285.49V333.13H66.26V285.49H108.2V417.01H66.26V369.37H43.45V417.01H1.51001V285.49H43.45Z" fill="url(#paint6_linear_17_3625)"/>
<path d="M136.54 400.9V301.59H151.64V285.49H242.73V301.59H258.67V400.9H242.73V417H151.64V400.9H136.54ZM177.97 382.78H216.22V320.71H177.97V382.78Z" fill="url(#paint7_linear_17_3625)"/>
<path d="M286.01 404.09V288.68H327.95V384.97H350.76V288.68H392.7V404.09H376.6V420.19H302.12V404.09H286.02H286.01Z" fill="url(#paint8_linear_17_3625)"/>
<path d="M481.1 382.28V368.86H420.04V285.49H523.54V320.22H462.48V333.64H523.54V417.01H420.04V382.29H481.1V382.28Z" fill="url(#paint9_linear_17_3625)"/>
<path d="M650.36 285.49V320.22H594.33V333.64H650.36V368.87H594.33V382.29H650.36V417.01H550.88V285.49H650.36Z" fill="url(#paint10_linear_17_3625)"/>
<path d="M241.41 205.84H141.83C141.278 205.84 140.83 206.288 140.83 206.84V239.71C140.83 240.262 141.278 240.71 141.83 240.71H241.41C241.962 240.71 242.41 240.262 242.41 239.71V206.84C242.41 206.288 241.962 205.84 241.41 205.84Z" fill="url(#paint11_linear_17_3625)"/>
<path d="M208.23 156.08H141.83C141.278 156.08 140.83 156.528 140.83 157.08V189.95C140.83 190.502 141.278 190.95 141.83 190.95H208.23C208.782 190.95 209.23 190.502 209.23 189.95V157.08C209.23 156.528 208.782 156.08 208.23 156.08Z" fill="url(#paint12_linear_17_3625)"/>
<path d="M241.42 106.32H158.46C157.908 106.32 157.46 106.768 157.46 107.32V140.19C157.46 140.742 157.908 141.19 158.46 141.19H241.42C241.972 141.19 242.42 140.742 242.42 140.19V107.32C242.42 106.768 241.972 106.32 241.42 106.32Z" fill="url(#paint13_linear_17_3625)"/>
<path d="M192.19 38.49H166.2C166.2 43.06 166.24 47.53 166.19 51.99C166.15 55.02 166.33 58.12 165.81 61.08C164.23 69.92 157.07 75.98 148.08 76.05C133.08 76.17 118.07 76.18 103.07 76.05C93.13 75.96 85.27 68.45 85.06 58.43C84.76 44.34 84.98 30.24 84.99 16.15C84.99 15.92 85.1 15.7 85.21 15.27C85.86 15.22 86.55 15.11 87.23 15.11C107.05 15.11 126.86 15.08 146.68 15.11C155.43 15.12 161.66 19.04 165.14 27.19C165.41 27.83 166.47 28.52 167.17 28.53C175.19 28.62 183.22 28.62 191.24 28.53C191.94 28.53 192.98 27.81 193.25 27.16C196.51 19.53 202.27 15.25 210.53 15.18C231.15 14.99 251.77 15.12 272.39 15.13C272.62 15.13 272.84 15.23 273.3 15.34C273.34 16.16 273.41 17.01 273.41 17.87C273.41 30.84 273.43 43.82 273.41 56.79C273.39 68.32 265.62 76.07 254.07 76.09C239.87 76.11 225.67 76.12 211.47 76.09C199.92 76.07 192.2 68.3 192.19 56.76C192.19 50.76 192.19 44.77 192.19 38.5V38.49ZM263.51 24.86C262.35 24.86 261.41 24.86 260.46 24.86C244.59 24.86 228.71 24.86 212.84 24.86C212.12 24.86 211.4 24.84 210.68 24.89C205.16 25.23 201.89 28.7 201.88 34.24C201.87 41.92 201.86 49.6 201.88 57.29C201.9 62.57 205.42 66.35 210.69 66.38C225.44 66.47 240.2 66.47 254.95 66.38C260.12 66.35 263.6 62.63 263.62 57.44C263.65 47.28 263.63 37.11 263.62 26.95C263.62 26.4 263.56 25.85 263.51 24.86ZM94.99 24.98C94.89 25.43 94.77 25.74 94.77 26.04C94.76 36.76 94.68 47.49 94.79 58.21C94.84 62.76 98.49 66.31 103.25 66.35C118.16 66.46 133.07 66.47 147.99 66.35C153 66.31 156.48 62.47 156.5 57.46C156.54 49.54 156.59 41.61 156.44 33.69C156.41 32.03 155.77 30.23 154.93 28.76C153.15 25.65 150.08 24.84 146.68 24.85C130.16 24.86 113.65 24.85 97.13 24.86C96.42 24.86 95.72 24.94 94.99 24.98Z" fill="#321B73"/>
<path d="M226.97 88.95C228.86 88.95 230.62 88.95 232.37 88.95C244.72 88.95 257.07 88.76 269.41 89.01C278.89 89.21 283.97 82.31 283.6 74.89C283.23 67.55 283.52 60.18 283.52 52.75C285.1 52.13 286 52.2 285.99 54.18C285.95 61.94 286.13 69.71 285.93 77.46C285.74 85 279.48 91.14 271.4 91.28C257.05 91.54 242.7 91.35 228.35 91.4C226.57 91.4 226.62 90.48 226.97 88.94V88.95Z" fill="#321B73"/>
<path d="M70 0H101.7C102.53 1.9 101.75 2.4 99.96 2.39C91.8 2.35 83.63 2.37 75.46 2.37C74.51 2.37 73.55 2.37 72.23 2.37C72.23 5.91 72.25 9.32 72.23 12.72C72.22 14.49 72.18 14.49 70 14.46V0Z" fill="#321B73"/>
<path d="M221.07 60.18C224.26 52.4 240.79 35.75 249.63 31.25C248.37 37.08 230.8 54.97 221.07 60.18Z" fill="#321B73"/>
<path d="M219.06 48.22C222.87 40.28 228.56 34.58 236.4 30.78C236.1 36.09 225.36 46.95 219.06 48.22Z" fill="#321B73"/>
<path d="M142.53 31.55C135.23 43.22 125.67 52.64 114.01 60.36C115.59 53.97 133.77 35.5 142.53 31.55Z" fill="#321B73"/>
<path d="M112.37 48.08C115.76 40.14 121.46 34.5 129.36 31.04C126.01 38.98 120.27 44.59 112.37 48.08Z" fill="#321B73"/>
</g>
<defs>
<linearGradient id="paint0_linear_17_3625" x1="0" y1="174.364" x2="122.138" y2="174.364" gradientUnits="userSpaceOnUse">
<stop stop-color="#321B73"/>
<stop offset="1" stop-color="#31B4ED"/>
</linearGradient>
<linearGradient id="paint1_linear_17_3625" x1="262.37" y1="174.369" x2="362.865" y2="174.369" gradientUnits="userSpaceOnUse">
<stop stop-color="#321B73"/>
<stop offset="1" stop-color="#31B4ED"/>
</linearGradient>
<linearGradient id="paint2_linear_17_3625" x1="383.63" y1="174.369" x2="488.155" y2="174.369" gradientUnits="userSpaceOnUse">
<stop stop-color="#321B73"/>
<stop offset="1" stop-color="#31B4ED"/>
</linearGradient>
<linearGradient id="paint3_linear_17_3625" x1="513" y1="124.169" x2="523.732" y2="124.169" gradientUnits="userSpaceOnUse">
<stop stop-color="#321B73"/>
<stop offset="1" stop-color="#31B4ED"/>
</linearGradient>
<linearGradient id="paint4_linear_17_3625" x1="513" y1="124.169" x2="523.732" y2="124.169" gradientUnits="userSpaceOnUse">
<stop stop-color="#321B73"/>
<stop offset="1" stop-color="#31B4ED"/>
</linearGradient>
<linearGradient id="paint5_linear_17_3625" x1="548.36" y1="174.369" x2="651.875" y2="174.369" gradientUnits="userSpaceOnUse">
<stop stop-color="#321B73"/>
<stop offset="1" stop-color="#31B4ED"/>
</linearGradient>
<linearGradient id="paint6_linear_17_3625" x1="1.51001" y1="351.269" x2="108.216" y2="351.269" gradientUnits="userSpaceOnUse">
<stop stop-color="#321B73"/>
<stop offset="1" stop-color="#31B4ED"/>
</linearGradient>
<linearGradient id="paint7_linear_17_3625" x1="136.54" y1="351.264" x2="258.688" y2="351.264" gradientUnits="userSpaceOnUse">
<stop stop-color="#321B73"/>
<stop offset="1" stop-color="#31B4ED"/>
</linearGradient>
<linearGradient id="paint8_linear_17_3625" x1="286.01" y1="354.454" x2="392.716" y2="354.454" gradientUnits="userSpaceOnUse">
<stop stop-color="#321B73"/>
<stop offset="1" stop-color="#31B4ED"/>
</linearGradient>
<linearGradient id="paint9_linear_17_3625" x1="420.04" y1="351.269" x2="523.555" y2="351.269" gradientUnits="userSpaceOnUse">
<stop stop-color="#321B73"/>
<stop offset="1" stop-color="#31B4ED"/>
</linearGradient>
<linearGradient id="paint10_linear_17_3625" x1="550.88" y1="351.269" x2="650.375" y2="351.269" gradientUnits="userSpaceOnUse">
<stop stop-color="#321B73"/>
<stop offset="1" stop-color="#31B4ED"/>
</linearGradient>
<linearGradient id="paint11_linear_17_3625" x1="140.83" y1="223.28" x2="242.425" y2="223.28" gradientUnits="userSpaceOnUse">
<stop stop-color="#321B73"/>
<stop offset="1" stop-color="#31B4ED"/>
</linearGradient>
<linearGradient id="paint12_linear_17_3625" x1="140.83" y1="173.52" x2="209.24" y2="173.52" gradientUnits="userSpaceOnUse">
<stop stop-color="#321B73"/>
<stop offset="1" stop-color="#31B4ED"/>
</linearGradient>
<linearGradient id="paint13_linear_17_3625" x1="157.46" y1="123.76" x2="242.432" y2="123.76" gradientUnits="userSpaceOnUse">
<stop stop-color="#321B73"/>
<stop offset="1" stop-color="#31B4ED"/>
</linearGradient>
<clipPath id="clip0_17_3625">
<rect width="651.86" height="420.19" fill="white"/>
</clipPath>
</defs>
</svg>
